<?xml version="1.0" encoding="UTF-8" standalone="no"?>
<svg
   xmlns:dc="http://purl.org/dc/elements/1.1/"
   xmlns:cc="http://creativecommons.org/ns#"
   xmlns:rdf="http://www.w3.org/1999/02/22-rdf-syntax-ns#"
   xmlns:svg="http://www.w3.org/2000/svg"
   xmlns="http://www.w3.org/2000/svg"
   xmlns:sodipodi="http://sodipodi.sourceforge.net/DTD/sodipodi-0.dtd"
   xmlns:inkscape="http://www.inkscape.org/namespaces/inkscape"
   width="24"
   height="24"
   viewBox="0 0 24 24"
   version="1.1"
   id="svg7"
   sodipodi:docname="hidden.svg"
   inkscape:version="0.92.4 (5da689c313, 2019-01-14)">
  <metadata
     id="metadata11">
    <rdf:RDF>
      <cc:Work
         rdf:about="">
        <dc:format>image/svg+xml</dc:format>
        <dc:type
           rdf:resource="http://purl.org/dc/dcmitype/StillImage" />
        <dc:title></dc:title>
      </cc:Work>
    </rdf:RDF>
  </metadata>
  <sodipodi:namedview
     pagecolor="#ffffff"
     bordercolor="#666666"
     borderopacity="1"
     objecttolerance="10"
     gridtolerance="10"
     guidetolerance="10"
     inkscape:pageopacity="0"
     inkscape:pageshadow="2"
     inkscape:window-width="1440"
     inkscape:window-height="796"
     id="namedview9"
     showgrid="false"
     inkscape:zoom="39.333333"
     inkscape:cx="15.205281"
     inkscape:cy="11.404132"
     inkscape:window-x="0"
     inkscape:window-y="24"
     inkscape:window-maximized="1"
     inkscape:current-layer="svg7" />
  <defs
     id="defs3">
    <style
       id="current-color-scheme"
       type="text/css">
   .ColorScheme-Text { color:#5c616c; } .ColorScheme-Highlight { color:#5294e2; }
  </style>
  </defs>
  <path
     style="color:#5c616c;fill:currentColor"
     class="ColorScheme-Text"
     d="m 11.074219,3.5117188 v 0 C 10.462219,3.2932187 9.8274813,3.1346125 9.1757812,3.0703125 8.7858812,3.0248125 8.3925,3.0039063 8,3.0039062 c -1.5508,0.0151 -3.1120906,0.3693657 -4.4628906,1.1347657 -0.5384,0.3506 -1.184675,0.8035656 -1.671875,1.2597656 C 1.0987344,6.1489375 0.4427,7.0244062 0,8.0039062 c 0.65287,1.4399 1.7335687,2.6610628 3.0429688,3.5390628 v 0 l 1.8769531,0.951172 v 0 c 0.6141,0.22 1.2506968,0.378359 1.9042969,0.443359 1.9273999,0.218 3.9446722,-0.114359 5.6386722,-1.068359 0.538,-0.35 1.184875,-0.802766 1.671875,-1.259766 C 14.900766,9.859375 15.557,8.9834063 16,8.0039062 15.346,6.5625063 14.264125,5.3391375 12.953125,4.4609375 v 0 z M 8,5.0039062 c 0.4529,-0.01 0.88595,0.1061813 1.28125,0.3007813 L 5.3125,9.2734375 C 4.9908,8.6067375 4.8873187,7.8375875 5.1367188,7.1171875 5.5059188,5.8877875 6.7125,4.9886063 8,5.0039062 Z M 10.695312,6.71875 C 10.891312,7.11575 11.009,7.5513062 11,8.0039062 11.052,9.7703062 9.2909813,11.294844 7.5507812,10.964844 7.2514813,10.929844 6.9753906,10.828172 6.7128906,10.701172 8.0261816,9.3844883 9.4599593,7.9560727 10.695312,6.71875 Z"
     transform="translate(4,4)"
     id="path5"
     inkscape:connector-curvature="0"
     sodipodi:nodetypes="cccccccccccccccccccccccccccc" />
  <ellipse
     style="fill:#ffffff;stroke-width:0.91769886"
     id="path820"
     cx="11.898305"
     cy="11.93644"
     rx="3.1271186"
     ry="2.9872882" />
</svg>
